<mxfile host="65bd71144e">
    <diagram id="joGvvnsFAH03o1QAHjlY" name="Page-1">
        <mxGraphModel dx="441" dy="361" grid="1" gridSize="10" guides="1" tooltips="1" connect="1" arrows="1" fold="1" page="1" pageScale="1" pageWidth="850" pageHeight="1100" math="0" shadow="0">
            <root>
                <mxCell id="0"/>
                <mxCell id="1" parent="0"/>
                <mxCell id="4" style="edgeStyle=none;html=1;exitX=1;exitY=0.5;exitDx=0;exitDy=0;entryX=0;entryY=0.5;entryDx=0;entryDy=0;" edge="1" parent="1" source="2" target="3">
                    <mxGeometry relative="1" as="geometry"/>
                </mxCell>
                <mxCell id="5" value="Haberleşme" style="edgeLabel;html=1;align=center;verticalAlign=middle;resizable=0;points=[];" vertex="1" connectable="0" parent="4">
                    <mxGeometry x="0.0059" relative="1" as="geometry">
                        <mxPoint as="offset"/>
                    </mxGeometry>
                </mxCell>
                <mxCell id="2" value="Client" style="ellipse;whiteSpace=wrap;html=1;aspect=fixed;" vertex="1" parent="1">
                    <mxGeometry x="40" y="40" width="40" height="40" as="geometry"/>
                </mxCell>
                <mxCell id="3" value="Server" style="ellipse;whiteSpace=wrap;html=1;aspect=fixed;" vertex="1" parent="1">
                    <mxGeometry x="280" y="40" width="40" height="40" as="geometry"/>
                </mxCell>
                <mxCell id="6" value="Bu haberleşmes sırasında:&lt;div&gt;&lt;br&gt;&lt;/div&gt;&lt;div&gt;Server&#39;dan veri alıncaksa -&amp;gt; GET&lt;/div&gt;&lt;div&gt;Server&#39;a veri gönderilecekse -&amp;gt; POST&lt;/div&gt;&lt;div&gt;Server&#39;daki bir veri güncellenecekse -&amp;gt; PUT&lt;/div&gt;&lt;div&gt;Server&#39;daki verinin sadece bir kısmı güncellenecekse -&amp;gt; PATCH&lt;/div&gt;&lt;div&gt;Server&#39;dan bir veri silinecekse -&amp;gt; DELETE&lt;/div&gt;" style="text;html=1;align=left;verticalAlign=middle;resizable=0;points=[];autosize=1;strokeColor=none;fillColor=none;" vertex="1" parent="1">
                    <mxGeometry x="40" y="100" width="360" height="110" as="geometry"/>
                </mxCell>
            </root>
        </mxGraphModel>
    </diagram>
</mxfile>